{"title":"Indiana Jones 1 Raiders Lost Ark (1981)(DIVX)(nl subs) 2Lions-Te","uid":5876161,"size":1464009174,"categoryP":"video","categoryS":"movies","magnet":"?xt=urn:btih:87279d7cd6fa58be4b659bd0abfb0f79595f1899&amp;dn=Indiana+Jones+1+Raiders+Lost+Ark+%281981%29%28DIVX%29%28nl+subs%29+2Lions-Te&amp;tr=udp%3A%2F%2Ftracker.openbittorrent.com%3A80&amp;tr=udp%3A%2F%2Fopen.demonii.com%3A1337&amp;tr=udp%3A%2F%2Ftracker.coppersurfer.tk%3A6969&amp;tr=udp%3A%2F%2Fexodus.desync.com%3A6969","seeders":4,"leechers":0,"uploader":"Pioen","files":-1,"time":1286648761,"description":"Indiana Jones 1 Raiders Lost Ark (1981)       \n\nAlternatieve titel: Indiana Jones and the Raiders of the Lost Ark \n\n\nVerenigde Staten\nActie / Avontuur\n115 minuten\n\ngeregisseerd door Steven Spielberg\nmet Harrison Ford, Karen Allen en John Rhys-Davies\n\nIndiana Jones heeft maar ÃƒÂ©ÃƒÂ©n levensdoel: de wereld afreizen op zoek naar archeologische rijkdommen. Hij is een avonturier die voor niets terugschrikt om zijn doel te bereiken en zijn concurrenten te verslaan. Zijn voornaamste tegenstrever is Belloq, een gewetenloze Franse archeoloog in dienst van Nazi-Duitsland. In 1936 wil Hitler absoluut de Ark des Verbonds in zijn bezit krijgen. Indiana Jones krijgt de opdracht om de Ark te vinden voordat de Nazi's dat doen.\n\nEnglish\n\nStoryline\nThe year is 1936. A professor who studies archeology named Indiana Jones is venturing in the jungles in South America searching for a golden statue. Unfortunately, he sets off a deadly trap doing so, miraculously, he escapes. Then, Jones hears from a museum curator named Marcus Brody about a biblical artifact called The Ark of the Covenant, which can hold the key to humanly existence. Jones has to venture to vast places such as Nepal and Egypt to find this artifact. However, he will have to fight his enemy Renee Belloq and a band of Nazis in order to reach it.\n\n\n\nSpotinformatie \nCategorie : Beeld \nFormaat : DivX \nBron : Retail\n\n\nTaal.....: Engels\nSubs ....: Nederlands (srt) (instelbaar) \nThanks ..: cjdijk  \n\nFormat                           : AVI\nFormat/Info                      : Audio Video Interleave\nFile size                        : 697 MiB\nDuration                         : 55mn 36s\nOverall bit rate                 : 1 754 Kbps\nWriting application              : VirtualDubMod 1.5.4.1 (build 2178/release)\nWriting library                  : VirtualDubMod build 2178/release\n\nVideo\nID                               : 0\nFormat                           : MPEG-4 Visual\nFormat profile                   : Simple@L3\nFormat settings, BVOP            : Yes\nFormat settings, QPel            : No\nFormat settings, GMC             : No warppoints\nFormat settings, Matrix          : Custom\nCodec ID                         : XVID\nCodec ID/Hint                    : XviD\nDuration                         : 55mn 36s\nBit rate                         : 1 299 Kbps\nWidth                            : 720 pixels\nHeight                           : 304 pixels\nDisplay aspect ratio             : 2.35\nFrame rate                       : 25.000 fps\nResolution                       : 24 bits\nColorimetry                      : 4:2:0\nScan type                        : Progressive\nBits/(Pixel*Frame)               : 0.237\nStream size                      : 516 MiB (74%)\nWriting library                  : XviD 0.0.09 (UTC 2003-03-25)\n\nAudio\nID                               : 1\nFormat                           : AC-3\nFormat/Info                      : Audio Coding 3\nCodec ID                         : 2000\nDuration                         : 55mn 36s\nBit rate mode                    : Constant\nBit rate                         : 448 Kbps\nChannel(s)                       : 6 channels\nChannel positions                : Front: L C R, Surround: L R, LFE\nSampling rate                    : 48.0 KHz\nStream size                      : 178 MiB (26%)\nAlignment                        : Split accross interleaves\nInterleave, duration             : 96 ms (2.40 video frames)\nInterleave, preload duration     : 96 ms\nLanguage                         : English / English\n \nGenre : Actie\nAvontuur\n\n\nWeblink : &lt;a href=&quot; http://www.moviemeter.nl/film/317&quot; rel=&quot;nofollow&quot; target=&quot;_NEW&quot;&gt; http://www.moviemeter.nl/film/317&lt;/a&gt; \nWeblink : &lt;a href=&quot; http://www.imdb.com/title/tt0082971&quot; rel=&quot;nofollow&quot; target=&quot;_NEW&quot;&gt; http://www.imdb.com/title/tt0082971&lt;/a&gt; \n\n*****************************************\n\nBrought to you by \n2Lions Team\n\nmeer zien??\nKom dan eens kijken op ons Forum \n                   &lt;a href=&quot;\nhttp://www.2lions-site.nl&quot; rel=&quot;nofollow&quot; target=&quot;_NEW&quot;&gt;\nhttp://www.2lions-site.nl&lt;/a&gt;  \n\n2Lions the site to be for all your Dutch MOVIES and more\n\n******************************************\n\n\nDON T HIT AND RUN Niet gelijk afhaken als de FILM binnen is blijf seeden. \n\nDon`t quit after you finished the download, but keep seeding\n\n\nThere are fake torrents from uploaders who use our team name.\nThose are not ours, or members from our team.\nWe 2Lions-Team are not responsible for the fake posts on our name\n\nWij 2Lions-Team zijn niet verantwoordelijk voor die zieke FAKE posten die op onze naam worden gedaan\n\nPlease check our site !!!\nTo the fakers Get a Live\n \n \n","torrent":{"xt":"urn:btih:87279d7cd6fa58be4b659bd0abfb0f79595f1899","amp;dn":"Indiana+Jones+1+Raiders+Lost+Ark+%281981%29%28DIVX%29%28nl+subs%29+2Lions-Te","amp;tr":["udp%3A%2F%2Ftracker.openbittorrent.com%3A80","udp%3A%2F%2Fopen.demonii.com%3A1337","udp%3A%2F%2Ftracker.coppersurfer.tk%3A6969","udp%3A%2F%2Fexodus.desync.com%3A6969"],"infoHash":"87279d7cd6fa58be4b659bd0abfb0f79595f1899","infoHashBuffer":{"type":"Buffer","data":[135,39,157,124,214,250,88,190,75,101,155,208,171,251,15,121,89,95,24,153]},"announce":[],"urlList":[]}}